<?xml version="1.0" encoding="utf-8"?>
<!-- Generator: Adobe Illustrator 19.1.0, SVG Export Plug-In . SVG Version: 6.00 Build 0)  -->
<svg version="1.1" id="Layer_1" xmlns="http://www.w3.org/2000/svg" xmlns:xlink="http://www.w3.org/1999/xlink" x="0px" y="0px"
	 viewBox="0 0 612 792" style="enable-background:new 0 0 612 792;" xml:space="preserve">
<path d="M329.4,381.2c0-0.4-0.1-0.7-0.1-1c0-0.4-0.1-0.6-0.3-0.9c-0.7-1.5-2.2-2.6-4-2.6c-1.4,0-2.7,0.7-3.5,1.8v-0.2
	c0-2.4-2-4.4-4.4-4.4s-4.4,2-4.4,4.4v-2.4c0-2.4-2-4.4-4.4-4.4h-0.8c-1.2,0-2.2,0.5-3,1.2c0-4.5,0-8.9,0-13.3c0-2.4-0.3-4.8-3.2-4.9
	c-2.9-0.1-3.3,2.3-3.3,4.8c0,8.8,0,17.5,0,26.3c0,1.5-0.1,2.9-0.2,4.4l-4.2-6.7c-1.1-1.8-3.5-2.4-5.3-1.2c-1.2,0.7-1.8,2-1.8,3.3
	c0,0.2,0,0.4,0,0.5c0.1,0.4,0.2,0.9,0.4,1.3c0.3,0.7,0.8,1.4,1.2,2c3.8,5.9,6.7,11,10.4,16.9c2.4,3.9,6.1,5.6,10.4,5.9
	c3.4,0.3,6.8,0.2,10.3,0c5-0.2,10.1-4.3,10.3-8.9c0.2-4.9,0.3-9.8,0.2-14.7c0-0.1,0-0.1,0-0.2v-7H329.4z"/>
</svg>
